# xmcd CD database file
#
# Track frame offsets:
#	150
#	23692
#	48906
#	76210
#	88328
#	108387
#	131093
#	153521
#	179571
#	200606
#	211331
#	214811
#	221635
#	231106
#
# Disc length: 3488 seconds
#
# Revision: 0
# Processed by: cddbd v1.5.2PL0 Copyright (c) Steve Scherf et al.
# Submitted via: jetAudio 7
#
DISCID=c90d9e0e
DTITLE=刘星 Liu Xing - 远去的村庄 The Fading Village
DYEAR=1900
DGENRE=New Age
TTITLE0=漫步的羊儿 The Rambling Sheep
TTITLE1=漂流的小舟 The Drifting Boat
TTITLE2=远去的村庄 The Fading Village
TTITLE3=秋天打柿子 Picking Persimmons in Autumn
TTITLE4=不惑的境界 Realm With Full Self-Confidence
TTITLE5=看海的老人 An Old Man Gazing at the Sea
TTITLE6=中阮 Zhongruan
TTITLE7=古琴 Qin
TTITLE8=弥地 Midi
TTITLE9=童年记忆-1 Memories of Childhood I
TTITLE10=童年记忆-2 Memories of Childhood II
TTITLE11=童年记忆-3 Memories of Childhood III
TTITLE12=童年记忆-4 Memories of Childhood IV
TTITLE13=树 Tree
EXTD=
EXTT0=
EXTT1=
EXTT2=
EXTT3=
EXTT4=
EXTT5=
EXTT6=
EXTT7=
EXTT8=
EXTT9=
EXTT10=
EXTT11=
EXTT12=
EXTT13=
PLAYORDER=
